<svg xmlns="http://www.w3.org/2000/svg" width="91.9mm" height="53.8mm" viewBox="0 0 1086 636">
  <defs>
    <radialGradient id="orb" cx="45%" cy="45%" r="78%">
      <stop offset="0" stop-color="#fff4c0"/><stop offset="0.18" stop-color="#f8f288"/>
      <stop offset="0.38" stop-color="#f5d820"/><stop offset="0.49" stop-color="#ffb805"/>
      <stop offset="0.65" stop-color="#ed7326"/><stop offset="0.71" stop-color="#e71f75"/>
      <stop offset="0.76" stop-color="#870a3e"/>
    </radialGradient>
    <radialGradient id="glow" cx="50%" cy="50%" r="50%">
      <stop offset="0.5" stop-color="#e71f75" stop-opacity="0.40"/>
      <stop offset="1" stop-color="#870a3e" stop-opacity="0"/>
    </radialGradient>
    <filter id="soft" x="-60%" y="-60%" width="220%" height="220%"><feGaussianBlur stdDeviation="34"/></filter>
  </defs>
  <rect width="1086" height="636" fill="#110d08"/>
  <circle cx="543.0" cy="250" r="210" fill="url(#glow)" filter="url(#soft)"/>
  <circle cx="543.0" cy="250" r="150" fill="url(#orb)"/>
  <path d="M398.925 235.65 399.52500000000003 235.8Q399.82500000000005 235.8 399.82500000000005 235.95Q403.725 234.45 406.27500000000003 238.2Q407.925 240.75 408.82500000000005 246.0Q409.125 253.2 407.32500000000005 265.95Q403.875 291.75 403.57500000000005 296.7Q403.875 301.95 397.125 303.9Q391.27500000000003 305.7 385.425 303.75Q379.27500000000003 301.65 380.32500000000005 297.3Q379.125 299.55 377.925 300.525Q376.725 301.5 373.20000000000005 303.225Q369.675 304.95 363.225 306.075Q356.77500000000003 307.2 350.32500000000005 306.67499999999995Q343.875 306.15 338.55 303.525Q333.225 300.9 331.425 295.35Q327.975 284.55 332.32500000000005 267.9Q335.32500000000005 256.95 343.125 248.55Q352.125 238.95 363.52500000000003 232.65Q372.07500000000005 228.0 380.02500000000003 227.10000000000002Q382.725 226.8 384.75 227.25Q386.77500000000003 227.7 389.1 228.15Q391.425 228.60000000000002 393.52500000000003 229.5Q398.925 231.75 398.925 235.65ZM371.175 275.4Q372.225 273.3 372.90000000000003 270.15Q373.57500000000005 267.0 374.77500000000003 263.25Q362.625 268.2 356.175 275.4Q349.125 283.35 357.07500000000005 286.35Q363.975 288.15 367.125 284.1Q368.475 282.3 369.52500000000003 279.6Q370.57500000000005 276.9 372.07500000000005 274.05Q371.625 274.8 371.175 275.4Z M425.325 310.8Q418.425 312.3 418.125 306.75Q417.675 305.25 416.25 305.025Q414.825 304.8 413.625 304.2Q410.475 302.85 411.825 296.85Q414.225 288.6 417.07500000000005 276.82500000000005Q419.925 265.05 424.425 250.95Q435.075 216.75 450.825 189.3Q451.875 187.95 453.225 185.775Q454.575 183.60000000000002 456.675 181.8Q461.925 177.0 469.575 179.55Q469.425 181.5 470.475 183.075Q471.525 184.65 472.875 186.3Q476.325 190.2 476.025 193.35000000000002Q460.125 231.0 447.375 277.5Q445.875 282.9 444.975 286.95Q444.075 291.0 443.1 294.15Q442.125 297.3 440.925 299.70000000000005Q439.725 302.1 437.32500000000005 304.20000000000005Q434.925 306.3 431.625 308.175Q428.325 310.05 425.325 310.8Z M481.725 235.95Q484.875 233.7 489.52500000000003 234.9Q490.425 235.05 491.32500000000005 235.05Q494.625 228.3 502.725 228.0Q504.82500000000005 227.85000000000002 508.57500000000005 227.25Q512.325 226.65 517.6500000000001 227.55Q522.975 228.45 527.025 230.7Q535.875 235.5 537.6750000000001 244.5Q541.275 257.7 536.625 273.3Q531.6750000000001 290.55 519.825 300.9Q514.4250000000001 305.7 508.42500000000007 306.975Q502.425 308.25 497.625 308.4Q492.82500000000005 308.55 488.85 308.475Q484.875 308.4 481.125 307.65Q473.02500000000003 306.0 467.77500000000003 300.0Q461.625 293.25 462.52500000000003 279.0Q463.125 266.4 468.9 253.575Q474.675 240.75 481.725 235.95ZM508.125 266.1Q504.375 267.3 501.07500000000005 267.15Q499.425 268.8 498.15 270.675Q496.875 272.55 494.775 274.125Q492.675 275.7 492.675 275.4Q490.125 279.0 488.475 282.825Q486.82500000000005 286.65 488.475 290.55Q494.475 291.15 497.32500000000005 290.25Q500.175 289.35 502.65 286.8Q505.125 284.25 506.475 280.8Q509.175 274.35 508.125 266.1Z M561.825 234.15Q566.0250000000001 230.10000000000002 571.2 229.425Q576.375 228.75 580.35 230.55Q584.325 232.35000000000002 586.2 236.32500000000002Q588.075 240.3 585.6750000000001 245.4Q580.575 252.9 577.575 261.6Q574.575 270.3 572.0250000000001 279.15Q585.825 270.45 595.125 253.2Q597.825 248.1 600.975 242.85L603.225 238.65L607.725 231.45Q608.625 228.60000000000002 610.875 227.775Q613.125 226.95 615.75 226.95Q618.375 226.95 621.075 227.025Q623.7750000000001 227.10000000000002 626.0250000000001 225.60000000000002Q628.2750000000001 224.10000000000002 631.3500000000001 224.47500000000002Q634.4250000000001 224.85000000000002 636.9000000000001 226.5Q639.375 228.15 640.6500000000001 230.47500000000002Q641.9250000000001 232.8 640.875 235.05Q634.575 248.55 623.625 285.3Q621.075 293.55 618.825 299.1Q615.075 303.75 609.375 305.4Q603.6750000000001 307.05 598.6500000000001 306.375Q593.625 305.7 590.625 302.92499999999995Q587.625 300.15 589.2750000000001 295.95Q585.075 299.4 580.575 302.25Q576.075 305.1 569.7 306.0Q563.325 306.9 557.475 305.475Q551.625 304.05 547.5 300.0Q543.375 295.95 543.075 289.2Q542.1750000000001 265.5 561.825 234.15Z M666.6750000000001 238.65Q672.225 234.9 679.4250000000001 236.4Q686.625 238.05 687.525 242.7Q688.725 239.85 689.325 237.0Q696.075 206.55 704.1750000000001 190.5Q706.725 185.55 709.4250000000001 183.60000000000002Q716.475 179.10000000000002 724.275 182.4Q727.4250000000001 183.75 729.225 186.075Q731.025 188.4 730.65 190.35000000000002Q730.275 192.3 730.95 193.5Q731.625 194.7 732.525 195.9Q734.9250000000001 198.75 734.475 200.85000000000002Q731.475 212.7 726.45 225.375Q721.4250000000001 238.05 716.1750000000001 250.65Q710.9250000000001 263.25 706.6500000000001 275.475Q702.375 287.7 701.025 298.65Q701.025 301.5 698.625 303.825Q696.225 306.15 692.625 307.5Q684.075 310.5 676.725 306.3V305.4Q675.225 304.95 674.55 304.79999999999995Q673.875 304.65 673.575 304.2Q673.125 303.45 672.825 299.55Q669.825 304.2 666.975 305.25Q664.125 306.3 661.125 306.3Q646.575 306.3 640.4250000000001 301.05Q635.025 296.55 635.325 286.35Q635.625 274.95 643.725 260.85Q653.025 244.8 666.6750000000001 238.65ZM666.525 287.85Q671.325 289.5 673.125 285.6Q674.1750000000001 283.65 675.1500000000001 280.5Q676.125 277.35 677.625 273.15L678.225 270.15Q674.625 268.05 671.7 269.55Q668.775 271.05 666.975 274.20000000000005Q665.1750000000001 277.35 664.875 281.25Q664.575 285.15 666.525 287.85Z M729.0749999999999 316.35H728.925Q728.775 316.35 728.475 316.05Q720.675 312.45 720.675 306.3Q720.675 300.9 726.225 295.5Q733.725 288.3 742.425 288.9Q743.475 289.05 747.375 290.1Q747.8249999999999 290.55 747.975 290.55Q756.525 297.15 752.3249999999999 305.7Q750.525 309.3 747.0 312.07500000000005Q743.475 314.85 739.95 315.975Q736.425 317.1 735.2249999999999 317.1Q734.025 317.1 729.0749999999999 316.35Z" fill="#000" stroke="#000" stroke-width="24" stroke-linejoin="round" paint-order="stroke"/>
  <path d="M398.925 235.65 399.52500000000003 235.8Q399.82500000000005 235.8 399.82500000000005 235.95Q403.725 234.45 406.27500000000003 238.2Q407.925 240.75 408.82500000000005 246.0Q409.125 253.2 407.32500000000005 265.95Q403.875 291.75 403.57500000000005 296.7Q403.875 301.95 397.125 303.9Q391.27500000000003 305.7 385.425 303.75Q379.27500000000003 301.65 380.32500000000005 297.3Q379.125 299.55 377.925 300.525Q376.725 301.5 373.20000000000005 303.225Q369.675 304.95 363.225 306.075Q356.77500000000003 307.2 350.32500000000005 306.67499999999995Q343.875 306.15 338.55 303.525Q333.225 300.9 331.425 295.35Q327.975 284.55 332.32500000000005 267.9Q335.32500000000005 256.95 343.125 248.55Q352.125 238.95 363.52500000000003 232.65Q372.07500000000005 228.0 380.02500000000003 227.10000000000002Q382.725 226.8 384.75 227.25Q386.77500000000003 227.7 389.1 228.15Q391.425 228.60000000000002 393.52500000000003 229.5Q398.925 231.75 398.925 235.65ZM371.175 275.4Q372.225 273.3 372.90000000000003 270.15Q373.57500000000005 267.0 374.77500000000003 263.25Q362.625 268.2 356.175 275.4Q349.125 283.35 357.07500000000005 286.35Q363.975 288.15 367.125 284.1Q368.475 282.3 369.52500000000003 279.6Q370.57500000000005 276.9 372.07500000000005 274.05Q371.625 274.8 371.175 275.4Z M425.325 310.8Q418.425 312.3 418.125 306.75Q417.675 305.25 416.25 305.025Q414.825 304.8 413.625 304.2Q410.475 302.85 411.825 296.85Q414.225 288.6 417.07500000000005 276.82500000000005Q419.925 265.05 424.425 250.95Q435.075 216.75 450.825 189.3Q451.875 187.95 453.225 185.775Q454.575 183.60000000000002 456.675 181.8Q461.925 177.0 469.575 179.55Q469.425 181.5 470.475 183.075Q471.525 184.65 472.875 186.3Q476.325 190.2 476.025 193.35000000000002Q460.125 231.0 447.375 277.5Q445.875 282.9 444.975 286.95Q444.075 291.0 443.1 294.15Q442.125 297.3 440.925 299.70000000000005Q439.725 302.1 437.32500000000005 304.20000000000005Q434.925 306.3 431.625 308.175Q428.325 310.05 425.325 310.8Z M481.725 235.95Q484.875 233.7 489.52500000000003 234.9Q490.425 235.05 491.32500000000005 235.05Q494.625 228.3 502.725 228.0Q504.82500000000005 227.85000000000002 508.57500000000005 227.25Q512.325 226.65 517.6500000000001 227.55Q522.975 228.45 527.025 230.7Q535.875 235.5 537.6750000000001 244.5Q541.275 257.7 536.625 273.3Q531.6750000000001 290.55 519.825 300.9Q514.4250000000001 305.7 508.42500000000007 306.975Q502.425 308.25 497.625 308.4Q492.82500000000005 308.55 488.85 308.475Q484.875 308.4 481.125 307.65Q473.02500000000003 306.0 467.77500000000003 300.0Q461.625 293.25 462.52500000000003 279.0Q463.125 266.4 468.9 253.575Q474.675 240.75 481.725 235.95ZM508.125 266.1Q504.375 267.3 501.07500000000005 267.15Q499.425 268.8 498.15 270.675Q496.875 272.55 494.775 274.125Q492.675 275.7 492.675 275.4Q490.125 279.0 488.475 282.825Q486.82500000000005 286.65 488.475 290.55Q494.475 291.15 497.32500000000005 290.25Q500.175 289.35 502.65 286.8Q505.125 284.25 506.475 280.8Q509.175 274.35 508.125 266.1Z M561.825 234.15Q566.0250000000001 230.10000000000002 571.2 229.425Q576.375 228.75 580.35 230.55Q584.325 232.35000000000002 586.2 236.32500000000002Q588.075 240.3 585.6750000000001 245.4Q580.575 252.9 577.575 261.6Q574.575 270.3 572.0250000000001 279.15Q585.825 270.45 595.125 253.2Q597.825 248.1 600.975 242.85L603.225 238.65L607.725 231.45Q608.625 228.60000000000002 610.875 227.775Q613.125 226.95 615.75 226.95Q618.375 226.95 621.075 227.025Q623.7750000000001 227.10000000000002 626.0250000000001 225.60000000000002Q628.2750000000001 224.10000000000002 631.3500000000001 224.47500000000002Q634.4250000000001 224.85000000000002 636.9000000000001 226.5Q639.375 228.15 640.6500000000001 230.47500000000002Q641.9250000000001 232.8 640.875 235.05Q634.575 248.55 623.625 285.3Q621.075 293.55 618.825 299.1Q615.075 303.75 609.375 305.4Q603.6750000000001 307.05 598.6500000000001 306.375Q593.625 305.7 590.625 302.92499999999995Q587.625 300.15 589.2750000000001 295.95Q585.075 299.4 580.575 302.25Q576.075 305.1 569.7 306.0Q563.325 306.9 557.475 305.475Q551.625 304.05 547.5 300.0Q543.375 295.95 543.075 289.2Q542.1750000000001 265.5 561.825 234.15Z M666.6750000000001 238.65Q672.225 234.9 679.4250000000001 236.4Q686.625 238.05 687.525 242.7Q688.725 239.85 689.325 237.0Q696.075 206.55 704.1750000000001 190.5Q706.725 185.55 709.4250000000001 183.60000000000002Q716.475 179.10000000000002 724.275 182.4Q727.4250000000001 183.75 729.225 186.075Q731.025 188.4 730.65 190.35000000000002Q730.275 192.3 730.95 193.5Q731.625 194.7 732.525 195.9Q734.9250000000001 198.75 734.475 200.85000000000002Q731.475 212.7 726.45 225.375Q721.4250000000001 238.05 716.1750000000001 250.65Q710.9250000000001 263.25 706.6500000000001 275.475Q702.375 287.7 701.025 298.65Q701.025 301.5 698.625 303.825Q696.225 306.15 692.625 307.5Q684.075 310.5 676.725 306.3V305.4Q675.225 304.95 674.55 304.79999999999995Q673.875 304.65 673.575 304.2Q673.125 303.45 672.825 299.55Q669.825 304.2 666.975 305.25Q664.125 306.3 661.125 306.3Q646.575 306.3 640.4250000000001 301.05Q635.025 296.55 635.325 286.35Q635.625 274.95 643.725 260.85Q653.025 244.8 666.6750000000001 238.65ZM666.525 287.85Q671.325 289.5 673.125 285.6Q674.1750000000001 283.65 675.1500000000001 280.5Q676.125 277.35 677.625 273.15L678.225 270.15Q674.625 268.05 671.7 269.55Q668.775 271.05 666.975 274.20000000000005Q665.1750000000001 277.35 664.875 281.25Q664.575 285.15 666.525 287.85Z M729.0749999999999 316.35H728.925Q728.775 316.35 728.475 316.05Q720.675 312.45 720.675 306.3Q720.675 300.9 726.225 295.5Q733.725 288.3 742.425 288.9Q743.475 289.05 747.375 290.1Q747.8249999999999 290.55 747.975 290.55Q756.525 297.15 752.3249999999999 305.7Q750.525 309.3 747.0 312.07500000000005Q743.475 314.85 739.95 315.975Q736.425 317.1 735.2249999999999 317.1Q734.025 317.1 729.0749999999999 316.35Z" fill="#e71f75" stroke="#ffd820" stroke-width="13" stroke-linejoin="round" paint-order="stroke"/>
  <path d="M228.32400000000007 490.172V498.632Q228.32400000000007 499.208 227.92800000000005 499.60400000000004Q227.53200000000007 500.0 226.92000000000007 500.0Q226.30800000000008 500.0 225.9120000000001 499.622Q225.51600000000008 499.244 225.51600000000008 498.632V496.472Q224.25600000000009 498.2 222.31200000000007 499.19Q220.36800000000008 500.18 218.02800000000008 500.18Q215.2920000000001 500.18 213.0780000000001 498.866Q210.8640000000001 497.552 209.58600000000007 495.266Q208.30800000000008 492.98 208.30800000000008 490.172Q208.30800000000008 487.364 209.62200000000007 485.05999999999995Q210.9360000000001 482.756 213.2220000000001 481.442Q215.50800000000007 480.128 218.3160000000001 480.128Q221.12400000000008 480.128 223.41000000000008 481.442Q225.69600000000008 482.756 227.01000000000008 485.05999999999995Q228.32400000000007 487.364 228.32400000000007 490.172ZM225.58800000000008 490.172Q225.58800000000008 488.048 224.63400000000007 486.33799999999997Q223.68000000000006 484.628 222.02400000000006 483.63800000000003Q220.36800000000008 482.648 218.3160000000001 482.648Q216.26400000000007 482.648 214.5900000000001 483.63800000000003Q212.91600000000008 484.628 211.96200000000007 486.33799999999997Q211.00800000000007 488.048 211.00800000000007 490.172Q211.00800000000007 492.296 211.96200000000007 494.006Q212.91600000000008 495.716 214.5900000000001 496.688Q216.26400000000007 497.66 218.3160000000001 497.66Q220.36800000000008 497.66 222.02400000000006 496.688Q223.68000000000006 495.716 224.63400000000007 494.006Q225.58800000000008 492.296 225.58800000000008 490.172Z M260.3640000000001 481.568Q260.3640000000001 481.784 260.2560000000001 482.072L252.3720000000001 499.064Q251.9040000000001 500.0 251.0040000000001 500.0Q250.1400000000001 500.0 249.70800000000008 499.064L241.7160000000001 482.108Q241.6080000000001 481.892 241.6080000000001 481.604Q241.6080000000001 480.848 242.4000000000001 480.452Q242.6520000000001 480.308 242.97600000000008 480.308Q243.3360000000001 480.308 243.6420000000001 480.488Q243.9480000000001 480.668 244.0920000000001 481.028L251.0040000000001 496.004L257.8440000000001 481.028Q257.9880000000001 480.668 258.3120000000001 480.47Q258.6360000000001 480.272 259.0320000000001 480.272Q259.3560000000001 480.272 259.6080000000001 480.416Q260.3640000000001 480.776 260.3640000000001 481.568Z M263.13600000000014 490.172Q263.13600000000014 487.328 264.43200000000013 485.024Q265.7280000000001 482.72 268.0140000000001 481.424Q270.3000000000001 480.128 273.1440000000001 480.128Q275.9880000000001 480.128 278.2560000000001 481.424Q280.5240000000001 482.72 281.8380000000001 485.024Q283.1520000000001 487.328 283.1520000000001 490.172Q283.1520000000001 493.016 281.8560000000001 495.302Q280.5600000000001 497.588 278.2740000000001 498.884Q275.9880000000001 500.18 273.1440000000001 500.18Q270.3000000000001 500.18 268.0140000000001 498.884Q265.7280000000001 497.588 264.43200000000013 495.302Q263.13600000000014 493.016 263.13600000000014 490.172ZM280.4160000000001 490.172Q280.4160000000001 488.012 279.48000000000013 486.302Q278.5440000000001 484.592 276.8880000000001 483.62Q275.2320000000001 482.648 273.1440000000001 482.648Q271.0920000000001 482.648 269.4180000000001 483.62Q267.7440000000001 484.592 266.7900000000001 486.302Q265.8360000000001 488.012 265.8360000000001 490.172Q265.8360000000001 492.296 266.7900000000001 494.006Q267.7440000000001 495.716 269.4180000000001 496.688Q271.0920000000001 497.66 273.1440000000001 497.66Q275.2320000000001 497.66 276.8880000000001 496.688Q278.5440000000001 495.716 279.48000000000013 494.006Q280.4160000000001 492.296 280.4160000000001 490.172Z M289.1280000000001 498.596V481.712Q289.1280000000001 481.1 289.5240000000001 480.704Q289.92000000000013 480.308 290.53200000000015 480.308Q291.1440000000001 480.308 291.52200000000016 480.704Q291.90000000000015 481.1 291.90000000000015 481.712V498.596Q291.90000000000015 499.208 291.52200000000016 499.60400000000004Q291.1440000000001 500.0 290.53200000000015 500.0Q289.92000000000013 500.0 289.5240000000001 499.60400000000004Q289.1280000000001 499.208 289.1280000000001 498.596ZM288.55200000000013 474.584Q288.55200000000013 473.72 289.12800000000016 473.18Q289.7040000000001 472.64 290.53200000000015 472.64Q291.3240000000001 472.64 291.9000000000001 473.18Q292.4760000000001 473.72 292.4760000000001 474.584Q292.4760000000001 475.412 291.9000000000001 475.988Q291.3240000000001 476.564 290.49600000000015 476.564Q289.6680000000001 476.564 289.1100000000001 475.988Q288.55200000000013 475.412 288.55200000000013 474.584Z M297.91200000000015 490.172Q297.91200000000015 487.29200000000003 299.13600000000014 485.00600000000003Q300.3600000000001 482.72 302.5200000000001 481.424Q304.6800000000001 480.128 307.3800000000001 480.128Q311.8800000000001 480.128 314.6880000000001 483.584Q314.9760000000001 483.908 314.9760000000001 484.34Q314.9760000000001 484.916 314.36400000000015 485.348Q314.04000000000013 485.564 313.6800000000001 485.564Q313.1400000000001 485.564 312.63600000000014 485.024Q311.5560000000001 483.836 310.2600000000001 483.242Q308.9640000000001 482.648 307.3800000000001 482.648Q305.40000000000015 482.648 303.85200000000015 483.602Q302.30400000000014 484.556 301.45800000000014 486.284Q300.61200000000014 488.012 300.61200000000014 490.172Q300.61200000000014 492.296 301.51200000000017 494.006Q302.41200000000015 495.716 304.03200000000015 496.688Q305.6520000000001 497.66 307.7400000000001 497.66Q310.6200000000001 497.66 312.3840000000001 496.112Q312.85200000000015 495.716 313.3560000000001 495.716Q313.7880000000001 495.716 314.14800000000014 496.004Q314.6520000000001 496.436 314.6520000000001 496.976Q314.6520000000001 497.444 314.29200000000014 497.768Q311.7000000000001 500.18 307.7400000000001 500.18Q304.93200000000013 500.18 302.70000000000016 498.866Q300.46800000000013 497.552 299.19000000000017 495.266Q297.91200000000015 492.98 297.91200000000015 490.172Z M337.8360000000001 489.812Q337.8360000000001 490.388 337.4760000000001 490.73Q337.11600000000016 491.072 336.54000000000013 491.072H321.99600000000015Q322.28400000000016 494.024 324.3000000000002 495.86Q326.31600000000014 497.696 329.34000000000015 497.696Q330.63600000000014 497.696 331.95000000000016 497.246Q333.2640000000001 496.796 334.05600000000015 496.112Q334.5240000000001 495.752 335.02800000000013 495.752Q335.42400000000015 495.752 335.82000000000016 496.04Q336.2880000000001 496.472 336.2880000000001 497.012Q336.2880000000001 497.48 335.89200000000017 497.84Q334.7040000000001 498.848 332.86800000000017 499.514Q331.03200000000015 500.18 329.34000000000015 500.18Q326.46000000000015 500.18 324.1920000000001 498.90200000000004Q321.92400000000015 497.624 320.6460000000002 495.338Q319.36800000000017 493.052 319.36800000000017 490.172Q319.36800000000017 487.256 320.5740000000002 484.97Q321.78000000000014 482.684 323.92200000000014 481.406Q326.06400000000014 480.128 328.8000000000001 480.128Q331.4640000000001 480.128 333.51600000000013 481.37Q335.56800000000015 482.612 336.7020000000001 484.808Q337.8360000000001 487.004 337.8360000000001 489.812ZM322.06800000000015 488.76800000000003H335.24400000000014Q334.95600000000013 485.996 333.2280000000001 484.304Q331.5000000000001 482.612 328.8000000000001 482.612Q326.06400000000014 482.612 324.2640000000001 484.304Q322.4640000000001 485.996 322.06800000000015 488.76800000000003Z M340.6440000000001 490.172Q340.6440000000001 489.56 341.02200000000016 489.164Q341.40000000000015 488.76800000000003 342.0120000000001 488.76800000000003H350.47200000000015Q351.0840000000001 488.76800000000003 351.48000000000013 489.164Q351.87600000000015 489.56 351.87600000000015 490.172Q351.87600000000015 490.748 351.48000000000013 491.144Q351.0840000000001 491.54 350.47200000000015 491.54H342.0120000000001Q341.43600000000015 491.54 341.04000000000013 491.144Q340.6440000000001 490.748 340.6440000000001 490.172Z M376.6080000000001 490.136Q376.6080000000001 492.944 375.2940000000001 495.24800000000005Q373.98000000000013 497.552 371.69400000000013 498.866Q369.40800000000013 500.18 366.60000000000014 500.18Q363.79200000000014 500.18 361.50600000000014 498.866Q359.22000000000014 497.552 357.9060000000002 495.24800000000005Q356.59200000000016 492.944 356.59200000000016 490.136V481.676Q356.59200000000016 481.46 356.62800000000016 481.352V473.288Q356.62800000000016 472.676 357.00600000000014 472.28Q357.3840000000001 471.884 357.99600000000015 471.884Q358.6080000000001 471.884 359.00400000000013 472.28Q359.40000000000015 472.676 359.40000000000015 473.288V483.836Q360.66000000000014 482.108 362.60400000000016 481.118Q364.5480000000002 480.128 366.88800000000015 480.128Q369.62400000000014 480.128 371.83800000000014 481.442Q374.05200000000013 482.756 375.33000000000015 485.042Q376.6080000000001 487.328 376.6080000000001 490.136ZM373.90800000000013 490.136Q373.90800000000013 488.012 372.9540000000002 486.302Q372.00000000000017 484.592 370.32600000000014 483.62Q368.65200000000016 482.648 366.60000000000014 482.648Q363.75600000000014 482.648 361.75800000000015 484.448Q359.76000000000016 486.248 359.40000000000015 489.056Q359.40000000000015 489.164 359.36400000000015 489.236Q359.32800000000015 489.524 359.32800000000015 490.136Q359.32800000000015 492.26 360.28200000000015 493.97Q361.23600000000016 495.68 362.89200000000017 496.67Q364.5480000000002 497.66 366.60000000000014 497.66Q368.65200000000016 497.66 370.32600000000014 496.67Q372.00000000000017 495.68 372.9540000000002 493.97Q373.90800000000013 492.26 373.90800000000013 490.136Z M401.01600000000013 490.172V498.632Q401.01600000000013 499.208 400.6200000000001 499.60400000000004Q400.22400000000016 500.0 399.61200000000014 500.0Q399.0000000000001 500.0 398.60400000000016 499.622Q398.20800000000014 499.244 398.20800000000014 498.632V496.472Q396.94800000000015 498.2 395.00400000000013 499.19Q393.0600000000001 500.18 390.72000000000014 500.18Q387.98400000000015 500.18 385.77000000000015 498.866Q383.55600000000015 497.552 382.27800000000013 495.266Q381.00000000000017 492.98 381.00000000000017 490.172Q381.00000000000017 487.364 382.3140000000002 485.05999999999995Q383.62800000000016 482.756 385.91400000000016 481.442Q388.20000000000016 480.128 391.00800000000015 480.128Q393.81600000000014 480.128 396.10200000000015 481.442Q398.38800000000015 482.756 399.7020000000001 485.05999999999995Q401.01600000000013 487.364 401.01600000000013 490.172ZM398.28000000000014 490.172Q398.28000000000014 488.048 397.32600000000014 486.33799999999997Q396.3720000000001 484.628 394.7160000000001 483.63800000000003Q393.0600000000001 482.648 391.00800000000015 482.648Q388.95600000000013 482.648 387.28200000000015 483.63800000000003Q385.6080000000001 484.628 384.6540000000001 486.33799999999997Q383.70000000000016 488.048 383.70000000000016 490.172Q383.70000000000016 492.296 384.6540000000001 494.006Q385.6080000000001 495.716 387.28200000000015 496.688Q388.95600000000013 497.66 391.00800000000015 497.66Q393.0600000000001 497.66 394.7160000000001 496.688Q396.3720000000001 495.716 397.32600000000014 494.006Q398.28000000000014 492.296 398.28000000000014 490.172Z M405.69600000000014 497.3Q405.3360000000002 496.868 405.3360000000002 496.472Q405.3360000000002 495.86 405.91200000000015 495.392Q406.34400000000016 495.068 406.8120000000002 495.068Q407.42400000000015 495.068 407.85600000000017 495.572Q408.72000000000014 496.58 410.14200000000017 497.12Q411.56400000000014 497.66 413.29200000000014 497.66Q415.8120000000002 497.66 417.0720000000002 496.79600000000005Q418.33200000000016 495.932 418.36800000000017 494.528Q418.36800000000017 493.232 417.1080000000002 492.36800000000005Q415.8480000000002 491.504 413.11200000000014 491.072Q409.5840000000002 490.496 407.8380000000002 489.07399999999996Q406.09200000000016 487.652 406.09200000000016 485.636Q406.09200000000016 483.008 408.12600000000015 481.568Q410.16000000000014 480.128 413.22000000000014 480.128Q415.5960000000002 480.128 417.3600000000001 480.938Q419.12400000000014 481.748 420.2040000000002 483.188Q420.49200000000013 483.656 420.49200000000013 484.016Q420.49200000000013 484.628 419.91600000000017 484.988Q419.66400000000016 485.168 419.23200000000014 485.168Q418.47600000000017 485.168 417.97200000000015 484.628Q416.20800000000014 482.612 413.14800000000014 482.612Q411.1680000000002 482.612 409.98000000000013 483.422Q408.79200000000014 484.232 408.79200000000014 485.456Q408.79200000000014 486.752 409.90800000000013 487.526Q411.02400000000017 488.3 413.86800000000017 488.76800000000003Q417.72000000000014 489.416 419.37600000000015 490.874Q421.03200000000015 492.332 421.03200000000015 494.492Q421.03200000000015 496.148 420.04200000000014 497.444Q419.05200000000013 498.74 417.2880000000001 499.46000000000004Q415.52400000000017 500.18 413.29200000000014 500.18Q411.0600000000002 500.18 409.00800000000015 499.424Q406.95600000000013 498.668 405.69600000000014 497.3Z M443.24400000000014 489.812Q443.24400000000014 490.388 442.8840000000001 490.73Q442.52400000000017 491.072 441.94800000000015 491.072H427.40400000000017Q427.6920000000002 494.024 429.7080000000002 495.86Q431.72400000000016 497.696 434.74800000000016 497.696Q436.04400000000015 497.696 437.3580000000002 497.246Q438.67200000000014 496.796 439.46400000000017 496.112Q439.93200000000013 495.752 440.43600000000015 495.752Q440.83200000000016 495.752 441.2280000000002 496.04Q441.69600000000014 496.472 441.69600000000014 497.012Q441.69600000000014 497.48 441.3000000000002 497.84Q440.11200000000014 498.848 438.2760000000002 499.514Q436.44000000000017 500.18 434.74800000000016 500.18Q431.86800000000017 500.18 429.60000000000014 498.90200000000004Q427.33200000000016 497.624 426.0540000000002 495.338Q424.7760000000002 493.052 424.7760000000002 490.172Q424.7760000000002 487.256 425.9820000000002 484.97Q427.18800000000016 482.684 429.33000000000015 481.406Q431.47200000000015 480.128 434.20800000000014 480.128Q436.8720000000001 480.128 438.92400000000015 481.37Q440.97600000000017 482.612 442.1100000000001 484.808Q443.24400000000014 487.004 443.24400000000014 489.812ZM427.47600000000017 488.76800000000003H440.65200000000016Q440.36400000000015 485.996 438.63600000000014 484.304Q436.90800000000013 482.612 434.20800000000014 482.612Q431.47200000000015 482.612 429.67200000000014 484.304Q427.8720000000001 485.996 427.47600000000017 488.76800000000003Z M466.89600000000013 481.676V490.136Q466.89600000000013 492.944 465.5820000000001 495.24800000000005Q464.26800000000014 497.552 461.98200000000014 498.866Q459.69600000000014 500.18 456.88800000000015 500.18Q454.08000000000015 500.18 451.79400000000015 498.866Q449.50800000000015 497.552 448.1940000000002 495.24800000000005Q446.88000000000017 492.944 446.88000000000017 490.136Q446.88000000000017 487.328 448.15800000000013 485.042Q449.43600000000015 482.756 451.65000000000015 481.442Q453.86400000000015 480.128 456.60000000000014 480.128Q458.9400000000001 480.128 460.8840000000001 481.118Q462.82800000000015 482.108 464.08800000000014 483.836V473.288Q464.08800000000014 472.676 464.48400000000015 472.28Q464.8800000000001 471.884 465.49200000000013 471.884Q466.10400000000016 471.884 466.48200000000014 472.28Q466.8600000000001 472.676 466.8600000000001 473.288V481.352Q466.89600000000013 481.46 466.89600000000013 481.676ZM464.16000000000014 490.136Q464.16000000000014 489.524 464.12400000000014 489.236Q464.08800000000014 489.164 464.08800000000014 489.056Q463.7280000000001 486.248 461.73000000000013 484.448Q459.73200000000014 482.648 456.88800000000015 482.648Q454.8360000000001 482.648 453.16200000000015 483.62Q451.4880000000001 484.592 450.5340000000001 486.302Q449.58000000000015 488.012 449.58000000000015 490.136Q449.58000000000015 492.26 450.5340000000001 493.97Q451.4880000000001 495.68 453.16200000000015 496.67Q454.8360000000001 497.66 456.88800000000015 497.66Q458.9400000000001 497.66 460.5960000000001 496.67Q462.2520000000001 495.68 463.20600000000013 493.97Q464.16000000000014 492.26 464.16000000000014 490.136Z M511.89600000000013 488.264V498.632Q511.89600000000013 499.244 511.51800000000014 499.622Q511.14000000000016 500.0 510.52800000000013 500.0Q509.91600000000017 500.0 509.52000000000015 499.622Q509.12400000000014 499.244 509.12400000000014 498.632V488.264Q509.12400000000014 485.708 507.8100000000002 484.21400000000006Q506.49600000000015 482.72 504.3720000000001 482.72Q502.10400000000016 482.72 500.70000000000016 484.232Q499.29600000000016 485.744 499.33200000000016 488.192V488.264V498.632Q499.33200000000016 499.244 498.9540000000002 499.622Q498.57600000000014 500.0 497.9640000000001 500.0Q497.35200000000015 500.0 496.95600000000013 499.622Q496.5600000000001 499.244 496.5600000000001 498.632V488.264Q496.5600000000001 485.708 495.2460000000001 484.21400000000006Q493.93200000000013 482.72 491.80800000000016 482.72Q489.57600000000014 482.72 488.13600000000014 484.196Q486.69600000000014 485.672 486.69600000000014 487.976V498.632Q486.69600000000014 499.244 486.3180000000001 499.622Q485.9400000000001 500.0 485.32800000000015 500.0Q484.7160000000001 500.0 484.32000000000016 499.622Q483.92400000000015 499.244 483.92400000000015 498.632V481.712Q483.92400000000015 481.1 484.32000000000016 480.704Q484.7160000000001 480.308 485.32800000000015 480.308Q485.9400000000001 480.308 486.3180000000001 480.704Q486.69600000000014 481.1 486.69600000000014 481.712V482.504Q487.7040000000001 481.352 489.09000000000015 480.722Q490.4760000000001 480.092 492.0960000000001 480.092Q494.07600000000014 480.092 495.66000000000014 480.99199999999996Q497.24400000000014 481.892 498.1800000000001 483.512Q499.22400000000016 481.892 500.89800000000014 480.99199999999996Q502.5720000000001 480.092 504.66000000000014 480.092Q506.78400000000016 480.092 508.42200000000014 481.1Q510.0600000000001 482.108 510.9780000000001 483.962Q511.89600000000013 485.816 511.89600000000013 488.264Z M535.4400000000002 489.812Q535.4400000000002 490.388 535.0800000000002 490.73Q534.7200000000001 491.072 534.1440000000002 491.072H519.6000000000001Q519.8880000000001 494.024 521.9040000000002 495.86Q523.9200000000002 497.696 526.9440000000002 497.696Q528.2400000000002 497.696 529.5540000000002 497.246Q530.8680000000002 496.796 531.6600000000002 496.112Q532.1280000000002 495.752 532.6320000000002 495.752Q533.0280000000001 495.752 533.4240000000002 496.04Q533.8920000000002 496.472 533.8920000000002 497.012Q533.8920000000002 497.48 533.4960000000002 497.84Q532.3080000000002 498.848 530.4720000000002 499.514Q528.6360000000002 500.18 526.9440000000002 500.18Q524.0640000000002 500.18 521.7960000000002 498.90200000000004Q519.5280000000001 497.624 518.2500000000002 495.338Q516.9720000000002 493.052 516.9720000000002 490.172Q516.9720000000002 487.256 518.1780000000001 484.97Q519.3840000000001 482.684 521.5260000000002 481.406Q523.6680000000002 480.128 526.4040000000002 480.128Q529.0680000000002 480.128 531.1200000000001 481.37Q533.1720000000001 482.612 534.3060000000002 484.808Q535.4400000000002 487.004 535.4400000000002 489.812ZM519.6720000000001 488.76800000000003H532.8480000000002Q532.5600000000002 485.996 530.8320000000001 484.304Q529.1040000000002 482.612 526.4040000000002 482.612Q523.6680000000002 482.612 521.8680000000002 484.304Q520.0680000000002 485.996 519.6720000000001 488.76800000000003Z M559.0920000000002 481.676V490.136Q559.0920000000002 492.944 557.7780000000002 495.24800000000005Q556.4640000000002 497.552 554.1780000000001 498.866Q551.8920000000002 500.18 549.0840000000002 500.18Q546.2760000000002 500.18 543.9900000000002 498.866Q541.7040000000002 497.552 540.3900000000002 495.24800000000005Q539.0760000000002 492.944 539.0760000000002 490.136Q539.0760000000002 487.328 540.3540000000003 485.042Q541.6320000000002 482.756 543.8460000000002 481.442Q546.0600000000002 480.128 548.7960000000003 480.128Q551.1360000000002 480.128 553.0800000000002 481.118Q555.0240000000002 482.108 556.2840000000002 483.836V473.288Q556.2840000000002 472.676 556.6800000000003 472.28Q557.0760000000002 471.884 557.6880000000002 471.884Q558.3000000000002 471.884 558.6780000000002 472.28Q559.0560000000003 472.676 559.0560000000003 473.288V481.352Q559.0920000000002 481.46 559.0920000000002 481.676ZM556.3560000000002 490.136Q556.3560000000002 489.524 556.3200000000002 489.236Q556.2840000000002 489.164 556.2840000000002 489.056Q555.9240000000002 486.248 553.9260000000002 484.448Q551.9280000000002 482.648 549.0840000000002 482.648Q547.0320000000003 482.648 545.3580000000002 483.62Q543.6840000000002 484.592 542.7300000000002 486.302Q541.7760000000002 488.012 541.7760000000002 490.136Q541.7760000000002 492.26 542.7300000000002 493.97Q543.6840000000002 495.68 545.3580000000002 496.67Q547.0320000000003 497.66 549.0840000000002 497.66Q551.1360000000002 497.66 552.7920000000001 496.67Q554.4480000000002 495.68 555.4020000000003 493.97Q556.3560000000002 492.26 556.3560000000002 490.136Z M566.1480000000003 498.596V481.712Q566.1480000000003 481.1 566.5440000000002 480.704Q566.9400000000002 480.308 567.5520000000002 480.308Q568.1640000000002 480.308 568.5420000000001 480.704Q568.9200000000002 481.1 568.9200000000002 481.712V498.596Q568.9200000000002 499.208 568.5420000000001 499.60400000000004Q568.1640000000002 500.0 567.5520000000002 500.0Q566.9400000000002 500.0 566.5440000000002 499.60400000000004Q566.1480000000003 499.208 566.1480000000003 498.596ZM565.5720000000002 474.584Q565.5720000000002 473.72 566.1480000000003 473.18Q566.7240000000003 472.64 567.5520000000002 472.64Q568.3440000000003 472.64 568.9200000000003 473.18Q569.4960000000002 473.72 569.4960000000002 474.584Q569.4960000000002 475.412 568.9200000000003 475.988Q568.3440000000003 476.564 567.5160000000002 476.564Q566.6880000000002 476.564 566.1300000000002 475.988Q565.5720000000002 475.412 565.5720000000002 474.584Z M585.9480000000002 498.632Q585.9480000000002 499.208 585.5160000000002 499.60400000000004Q585.0840000000002 500.0 584.4360000000003 500.0H583.6800000000002Q581.7720000000002 500.0 580.2600000000002 499.082Q578.7480000000002 498.164 577.9020000000003 496.59799999999996Q577.0560000000003 495.032 577.0560000000003 493.052V483.44H574.7160000000002Q574.1400000000002 483.44 573.7980000000002 483.09799999999996Q573.4560000000002 482.756 573.4560000000002 482.252Q573.4560000000002 481.712 573.7980000000002 481.37Q574.1400000000002 481.028 574.7160000000002 481.028H577.0560000000003V475.448Q577.0560000000003 474.836 577.4340000000002 474.44Q577.8120000000002 474.044 578.4240000000002 474.044Q579.0360000000002 474.044 579.4320000000002 474.44Q579.8280000000002 474.836 579.8280000000002 475.448V481.028H583.8960000000002Q584.4720000000002 481.028 584.8140000000002 481.37Q585.1560000000002 481.712 585.1560000000002 482.252Q585.1560000000002 482.756 584.8140000000002 483.09799999999996Q584.4720000000002 483.44 583.8960000000002 483.44H579.8280000000002V493.052Q579.8280000000002 494.888 580.9080000000001 496.058Q581.9880000000002 497.228 583.6800000000002 497.228H584.6520000000003Q585.2280000000002 497.228 585.5880000000002 497.624Q585.9480000000002 498.02 585.9480000000002 498.632Z M609.4200000000002 490.172V498.632Q609.4200000000002 499.208 609.0240000000001 499.60400000000004Q608.6280000000002 500.0 608.0160000000002 500.0Q607.4040000000002 500.0 607.0080000000003 499.622Q606.6120000000002 499.244 606.6120000000002 498.632V496.472Q605.3520000000002 498.2 603.4080000000001 499.19Q601.4640000000002 500.18 599.1240000000003 500.18Q596.3880000000001 500.18 594.1740000000002 498.866Q591.9600000000002 497.552 590.6820000000002 495.266Q589.4040000000002 492.98 589.4040000000002 490.172Q589.4040000000002 487.364 590.7180000000002 485.05999999999995Q592.0320000000002 482.756 594.3180000000002 481.442Q596.6040000000002 480.128 599.4120000000001 480.128Q602.2200000000001 480.128 604.5060000000001 481.442Q606.7920000000001 482.756 608.1060000000002 485.05999999999995Q609.4200000000002 487.364 609.4200000000002 490.172ZM606.6840000000002 490.172Q606.6840000000002 488.048 605.7300000000002 486.33799999999997Q604.7760000000002 484.628 603.1200000000001 483.63800000000003Q601.4640000000002 482.648 599.4120000000001 482.648Q597.3600000000002 482.648 595.6860000000001 483.63800000000003Q594.0120000000002 484.628 593.0580000000002 486.33799999999997Q592.1040000000002 488.048 592.1040000000002 490.172Q592.1040000000002 492.296 593.0580000000002 494.006Q594.0120000000002 495.716 595.6860000000001 496.688Q597.3600000000002 497.66 599.4120000000001 497.66Q601.4640000000002 497.66 603.1200000000001 496.688Q604.7760000000002 495.716 605.7300000000002 494.006Q606.6840000000002 492.296 606.6840000000002 490.172Z M624.7920000000001 498.632Q624.7920000000001 499.208 624.3600000000001 499.60400000000004Q623.9280000000001 500.0 623.2800000000002 500.0H622.5240000000001Q620.6160000000001 500.0 619.104 499.082Q617.5920000000001 498.164 616.7460000000001 496.59799999999996Q615.9000000000002 495.032 615.9000000000002 493.052V483.44H613.5600000000002Q612.9840000000002 483.44 612.6420000000002 483.09799999999996Q612.3000000000002 482.756 612.3000000000002 482.252Q612.3000000000002 481.712 612.6420000000002 481.37Q612.9840000000002 481.028 613.5600000000002 481.028H615.9000000000002V475.448Q615.9000000000002 474.836 616.2780000000002 474.44Q616.6560000000002 474.044 617.2680000000001 474.044Q617.8800000000001 474.044 618.2760000000001 474.44Q618.6720000000001 474.836 618.6720000000001 475.448V481.028H622.7400000000001Q623.3160000000001 481.028 623.6580000000001 481.37Q624.0000000000001 481.712 624.0000000000001 482.252Q624.0000000000001 482.756 623.6580000000001 483.09799999999996Q623.3160000000001 483.44 622.7400000000001 483.44H618.6720000000001V493.052Q618.6720000000001 494.888 619.7520000000002 496.058Q620.8320000000001 497.228 622.5240000000001 497.228H623.4960000000002Q624.0720000000001 497.228 624.4320000000001 497.624Q624.7920000000001 498.02 624.7920000000001 498.632Z M629.8680000000002 498.596V481.712Q629.8680000000002 481.1 630.2640000000001 480.704Q630.6600000000001 480.308 631.2720000000002 480.308Q631.8840000000001 480.308 632.2620000000002 480.704Q632.6400000000001 481.1 632.6400000000001 481.712V498.596Q632.6400000000001 499.208 632.2620000000002 499.60400000000004Q631.8840000000001 500.0 631.2720000000002 500.0Q630.6600000000001 500.0 630.2640000000001 499.60400000000004Q629.8680000000002 499.208 629.8680000000002 498.596ZM629.2920000000001 474.584Q629.2920000000001 473.72 629.8680000000002 473.18Q630.4440000000002 472.64 631.2720000000002 472.64Q632.0640000000002 472.64 632.6400000000001 473.18Q633.2160000000001 473.72 633.2160000000001 474.584Q633.2160000000001 475.412 632.6400000000001 475.988Q632.0640000000002 476.564 631.2360000000001 476.564Q630.4080000000001 476.564 629.8500000000001 475.988Q629.2920000000001 475.412 629.2920000000001 474.584Z M638.6520000000002 490.172Q638.6520000000002 487.328 639.9480000000001 485.024Q641.2440000000001 482.72 643.5300000000002 481.424Q645.8160000000001 480.128 648.6600000000001 480.128Q651.5040000000001 480.128 653.7720000000002 481.424Q656.0400000000001 482.72 657.354 485.024Q658.6680000000001 487.328 658.6680000000001 490.172Q658.6680000000001 493.016 657.3720000000001 495.302Q656.0760000000001 497.588 653.7900000000002 498.884Q651.5040000000001 500.18 648.6600000000001 500.18Q645.8160000000001 500.18 643.5300000000002 498.884Q641.2440000000001 497.588 639.9480000000001 495.302Q638.6520000000002 493.016 638.6520000000002 490.172ZM655.9320000000001 490.172Q655.9320000000001 488.012 654.9960000000001 486.302Q654.0600000000002 484.592 652.4040000000002 483.62Q650.7480000000002 482.648 648.6600000000001 482.648Q646.6080000000002 482.648 644.9340000000002 483.62Q643.2600000000001 484.592 642.306 486.302Q641.3520000000001 488.012 641.3520000000001 490.172Q641.3520000000001 492.296 642.306 494.006Q643.2600000000001 495.716 644.9340000000002 496.688Q646.6080000000002 497.66 648.6600000000001 497.66Q650.7480000000002 497.66 652.4040000000002 496.688Q654.0600000000002 495.716 654.9960000000001 494.006Q655.9320000000001 492.296 655.9320000000001 490.172Z M682.32 489.272V498.632Q682.32 499.208 681.9240000000001 499.60400000000004Q681.5280000000001 500.0 680.9520000000001 500.0Q680.34 500.0 679.9440000000001 499.60400000000004Q679.5480000000001 499.208 679.5480000000001 498.632V489.272Q679.5480000000001 486.068 677.7660000000001 484.394Q675.984 482.72 673.104 482.72Q671.34 482.72 669.9180000000001 483.404Q668.4960000000001 484.088 667.6680000000001 485.294Q666.84 486.5 666.84 487.976V498.632Q666.84 499.244 666.462 499.622Q666.0840000000001 500.0 665.4720000000001 500.0Q664.8600000000001 500.0 664.4640000000002 499.622Q664.0680000000001 499.244 664.0680000000001 498.632V481.712Q664.0680000000001 481.1 664.4640000000002 480.704Q664.8600000000001 480.308 665.4720000000001 480.308Q666.0840000000001 480.308 666.462 480.704Q666.84 481.1 666.84 481.712V482.936Q668.0280000000001 481.604 669.72 480.84799999999996Q671.412 480.092 673.392 480.092Q675.9480000000001 480.092 677.9820000000001 481.172Q680.0160000000001 482.252 681.1680000000001 484.322Q682.32 486.392 682.32 489.272Z M702.8760000000001 480.2V481.028H707.196Q707.772 481.028 708.114 481.37Q708.456 481.712 708.456 482.252Q708.456 482.756 708.114 483.09799999999996Q707.772 483.44 707.196 483.44H702.8760000000001V498.596Q702.8760000000001 499.244 702.498 499.622Q702.12 500.0 701.436 500.0Q700.86 500.0 700.482 499.622Q700.104 499.244 700.104 498.596V483.44H697.8000000000001Q697.224 483.44 696.8820000000001 483.09799999999996Q696.5400000000001 482.756 696.5400000000001 482.252Q696.5400000000001 481.712 696.8820000000001 481.37Q697.224 481.028 697.8000000000001 481.028H700.104V480.344Q700.104 476.492 702.0840000000001 474.188Q704.0640000000001 471.884 707.6640000000001 471.884Q708.2760000000001 471.884 708.672 472.244Q709.0680000000001 472.604 709.0680000000001 473.144Q709.0680000000001 473.684 708.672 474.044Q708.2760000000001 474.404 707.6640000000001 474.404Q705.288 474.404 704.0820000000001 475.988Q702.8760000000001 477.572 702.8760000000001 480.2Z M731.1360000000001 490.172V498.632Q731.1360000000001 499.208 730.74 499.60400000000004Q730.344 500.0 729.7320000000001 500.0Q729.1200000000001 500.0 728.7240000000002 499.622Q728.3280000000001 499.244 728.3280000000001 498.632V496.472Q727.0680000000001 498.2 725.124 499.19Q723.1800000000001 500.18 720.8400000000001 500.18Q718.104 500.18 715.8900000000001 498.866Q713.676 497.552 712.3980000000001 495.266Q711.1200000000001 492.98 711.1200000000001 490.172Q711.1200000000001 487.364 712.4340000000001 485.05999999999995Q713.748 482.756 716.0340000000001 481.442Q718.32 480.128 721.128 480.128Q723.936 480.128 726.222 481.442Q728.508 482.756 729.8220000000001 485.05999999999995Q731.1360000000001 487.364 731.1360000000001 490.172ZM728.4000000000001 490.172Q728.4000000000001 488.048 727.4460000000001 486.33799999999997Q726.4920000000001 484.628 724.836 483.63800000000003Q723.1800000000001 482.648 721.128 482.648Q719.0760000000001 482.648 717.402 483.63800000000003Q715.7280000000001 484.628 714.7740000000001 486.33799999999997Q713.82 488.048 713.82 490.172Q713.82 492.296 714.7740000000001 494.006Q715.7280000000001 495.716 717.402 496.688Q719.0760000000001 497.66 721.128 497.66Q723.1800000000001 497.66 724.836 496.688Q726.4920000000001 495.716 727.4460000000001 494.006Q728.4000000000001 492.296 728.4000000000001 490.172Z M735.4920000000001 490.172Q735.4920000000001 487.29200000000003 736.7160000000001 485.00600000000003Q737.94 482.72 740.1 481.424Q742.26 480.128 744.96 480.128Q749.46 480.128 752.268 483.584Q752.556 483.908 752.556 484.34Q752.556 484.916 751.9440000000001 485.348Q751.62 485.564 751.26 485.564Q750.72 485.564 750.216 485.024Q749.1360000000001 483.836 747.8400000000001 483.242Q746.5440000000001 482.648 744.96 482.648Q742.98 482.648 741.432 483.602Q739.884 484.556 739.038 486.284Q738.192 488.012 738.192 490.172Q738.192 492.296 739.0920000000001 494.006Q739.9920000000001 495.716 741.6120000000001 496.688Q743.2320000000001 497.66 745.32 497.66Q748.2 497.66 749.964 496.112Q750.432 495.716 750.936 495.716Q751.368 495.716 751.7280000000001 496.004Q752.2320000000001 496.436 752.2320000000001 496.976Q752.2320000000001 497.444 751.8720000000001 497.768Q749.2800000000001 500.18 745.32 500.18Q742.5120000000001 500.18 740.28 498.866Q738.048 497.552 736.77 495.266Q735.4920000000001 492.98 735.4920000000001 490.172Z M758.5680000000001 498.596V481.712Q758.5680000000001 481.1 758.964 480.704Q759.36 480.308 759.9720000000001 480.308Q760.5840000000001 480.308 760.962 480.704Q761.34 481.1 761.34 481.712V498.596Q761.34 499.208 760.962 499.60400000000004Q760.5840000000001 500.0 759.9720000000001 500.0Q759.36 500.0 758.964 499.60400000000004Q758.5680000000001 499.208 758.5680000000001 498.596ZM757.9920000000001 474.584Q757.9920000000001 473.72 758.5680000000001 473.18Q759.1440000000001 472.64 759.9720000000001 472.64Q760.7640000000001 472.64 761.3400000000001 473.18Q761.916 473.72 761.916 474.584Q761.916 475.412 761.3400000000001 475.988Q760.7640000000001 476.564 759.936 476.564Q759.1080000000001 476.564 758.5500000000001 475.988Q757.9920000000001 475.412 757.9920000000001 474.584Z M767.676 493.772V473.252Q767.676 472.64 768.0720000000001 472.262Q768.4680000000001 471.884 769.0440000000001 471.884Q769.6560000000001 471.884 770.0340000000001 472.262Q770.412 472.64 770.412 473.252V493.772Q770.412 495.32 771.042 496.29200000000003Q771.672 497.264 772.644 497.264H773.5440000000001Q774.0840000000001 497.264 774.4080000000001 497.642Q774.7320000000001 498.02 774.7320000000001 498.632Q774.7320000000001 499.244 774.2820000000002 499.622Q773.8320000000001 500.0 773.1120000000001 500.0H772.644Q770.4480000000001 500.0 769.0620000000001 498.254Q767.676 496.508 767.676 493.772Z M779.1240000000001 498.596V481.712Q779.1240000000001 481.1 779.5200000000001 480.704Q779.916 480.308 780.5280000000001 480.308Q781.1400000000001 480.308 781.518 480.704Q781.8960000000001 481.1 781.8960000000001 481.712V498.596Q781.8960000000001 499.208 781.518 499.60400000000004Q781.1400000000001 500.0 780.5280000000001 500.0Q779.916 500.0 779.5200000000001 499.60400000000004Q779.1240000000001 499.208 779.1240000000001 498.596ZM778.5480000000001 474.584Q778.5480000000001 473.72 779.1240000000001 473.18Q779.7000000000002 472.64 780.5280000000001 472.64Q781.3200000000002 472.64 781.8960000000002 473.18Q782.4720000000001 473.72 782.4720000000001 474.584Q782.4720000000001 475.412 781.8960000000002 475.988Q781.3200000000002 476.564 780.4920000000001 476.564Q779.6640000000001 476.564 779.1060000000001 475.988Q778.5480000000001 475.412 778.5480000000001 474.584Z M798.9240000000001 498.632Q798.9240000000001 499.208 798.4920000000001 499.60400000000004Q798.0600000000001 500.0 797.4120000000001 500.0H796.6560000000001Q794.748 500.0 793.2360000000001 499.082Q791.724 498.164 790.8780000000002 496.59799999999996Q790.0320000000002 495.032 790.0320000000002 493.052V483.44H787.6920000000001Q787.1160000000001 483.44 786.7740000000001 483.09799999999996Q786.4320000000001 482.756 786.4320000000001 482.252Q786.4320000000001 481.712 786.7740000000001 481.37Q787.1160000000001 481.028 787.6920000000001 481.028H790.0320000000002V475.448Q790.0320000000002 474.836 790.4100000000001 474.44Q790.7880000000001 474.044 791.4000000000001 474.044Q792.0120000000001 474.044 792.4080000000001 474.44Q792.8040000000001 474.836 792.8040000000001 475.448V481.028H796.8720000000001Q797.4480000000001 481.028 797.7900000000001 481.37Q798.1320000000001 481.712 798.1320000000001 482.252Q798.1320000000001 482.756 797.7900000000001 483.09799999999996Q797.4480000000001 483.44 796.8720000000001 483.44H792.8040000000001V493.052Q792.8040000000001 494.888 793.884 496.058Q794.964 497.228 796.6560000000001 497.228H797.6280000000002Q798.2040000000001 497.228 798.5640000000001 497.624Q798.9240000000001 498.02 798.9240000000001 498.632Z M822.3960000000001 490.172V498.632Q822.3960000000001 499.208 822.0 499.60400000000004Q821.604 500.0 820.9920000000001 500.0Q820.3800000000001 500.0 819.9840000000002 499.622Q819.5880000000001 499.244 819.5880000000001 498.632V496.472Q818.3280000000001 498.2 816.384 499.19Q814.44 500.18 812.1000000000001 500.18Q809.364 500.18 807.1500000000001 498.866Q804.936 497.552 803.6580000000001 495.266Q802.3800000000001 492.98 802.3800000000001 490.172Q802.3800000000001 487.364 803.6940000000001 485.05999999999995Q805.008 482.756 807.2940000000001 481.442Q809.58 480.128 812.388 480.128Q815.196 480.128 817.482 481.442Q819.768 482.756 821.0820000000001 485.05999999999995Q822.3960000000001 487.364 822.3960000000001 490.172ZM819.6600000000001 490.172Q819.6600000000001 488.048 818.7060000000001 486.33799999999997Q817.7520000000001 484.628 816.096 483.63800000000003Q814.44 482.648 812.388 482.648Q810.3360000000001 482.648 808.662 483.63800000000003Q806.988 484.628 806.0340000000001 486.33799999999997Q805.08 488.048 805.08 490.172Q805.08 492.296 806.0340000000001 494.006Q806.988 495.716 808.662 496.688Q810.3360000000001 497.66 812.388 497.66Q814.44 497.66 816.096 496.688Q817.7520000000001 495.716 818.7060000000001 494.006Q819.6600000000001 492.296 819.6600000000001 490.172Z M837.768 498.632Q837.768 499.208 837.336 499.60400000000004Q836.904 500.0 836.2560000000001 500.0H835.5Q833.592 500.0 832.0799999999999 499.082Q830.568 498.164 829.722 496.59799999999996Q828.8760000000001 495.032 828.8760000000001 493.052V483.44H826.5360000000001Q825.96 483.44 825.618 483.09799999999996Q825.2760000000001 482.756 825.2760000000001 482.252Q825.2760000000001 481.712 825.618 481.37Q825.96 481.028 826.5360000000001 481.028H828.8760000000001V475.448Q828.8760000000001 474.836 829.2540000000001 474.44Q829.6320000000001 474.044 830.244 474.044Q830.856 474.044 831.252 474.44Q831.648 474.836 831.648 475.448V481.028H835.716Q836.292 481.028 836.634 481.37Q836.976 481.712 836.976 482.252Q836.976 482.756 836.634 483.09799999999996Q836.292 483.44 835.716 483.44H831.648V493.052Q831.648 494.888 832.7280000000001 496.058Q833.808 497.228 835.5 497.228H836.4720000000001Q837.048 497.228 837.408 497.624Q837.768 498.02 837.768 498.632Z M841.224 490.172Q841.224 487.328 842.52 485.024Q843.816 482.72 846.1020000000001 481.424Q848.388 480.128 851.232 480.128Q854.076 480.128 856.344 481.424Q858.612 482.72 859.9259999999999 485.024Q861.24 487.328 861.24 490.172Q861.24 493.016 859.944 495.302Q858.648 497.588 856.3620000000001 498.884Q854.076 500.18 851.232 500.18Q848.388 500.18 846.1020000000001 498.884Q843.816 497.588 842.52 495.302Q841.224 493.016 841.224 490.172ZM858.504 490.172Q858.504 488.012 857.568 486.302Q856.6320000000001 484.592 854.9760000000001 483.62Q853.32 482.648 851.232 482.648Q849.1800000000001 482.648 847.5060000000001 483.62Q845.832 484.592 844.8779999999999 486.302Q843.924 488.012 843.924 490.172Q843.924 492.296 844.8779999999999 494.006Q845.832 495.716 847.5060000000001 496.688Q849.1800000000001 497.66 851.232 497.66Q853.32 497.66 854.9760000000001 496.688Q856.6320000000001 495.716 857.568 494.006Q858.504 492.296 858.504 490.172Z M878.808 481.604Q878.808 481.82 878.7719999999999 481.928Q878.6279999999999 482.432 878.3219999999999 482.612Q878.016 482.79200000000003 877.476 482.79200000000003Q877.1519999999999 482.79200000000003 876.36 482.72Q876.072 482.684 875.496 482.684Q872.7959999999999 482.684 871.086 484.124Q869.376 485.564 869.376 487.868V498.632Q869.376 499.28 869.016 499.64Q868.656 500.0 868.0079999999999 500.0Q867.36 500.0 867.0 499.64Q866.64 499.28 866.64 498.632V481.676Q866.64 481.028 867.0 480.668Q867.36 480.308 868.0079999999999 480.308Q868.656 480.308 869.016 480.668Q869.376 481.028 869.376 481.676V483.26Q870.42 481.748 872.04 480.91999999999996Q873.66 480.092 875.5319999999999 480.092Q877.044 480.092 877.9259999999999 480.488Q878.808 480.884 878.808 481.604Z" fill="#f5e8e6"/>
  <path d="M316.95 558.713V535.514Q316.95 534.953 317.3295 534.5899999999999Q317.709 534.227 318.23699999999997 534.227H333.714Q334.275 534.227 334.638 534.5899999999999Q335.001 534.953 335.001 535.481Q335.001 536.009 334.638 536.3555Q334.275 536.702 333.714 536.702H319.524V545.81H329.85299999999995Q330.414 545.81 330.777 546.173Q331.14 546.536 331.14 547.064Q331.14 547.592 330.7605 547.9549999999999Q330.381 548.318 329.85299999999995 548.318H319.524V557.525H333.714Q334.275 557.525 334.638 557.8715Q335.001 558.218 335.001 558.746Q335.001 559.274 334.638 559.637Q334.275 560.0 333.714 560.0H318.23699999999997Q317.709 560.0 317.3295 559.6205Q316.95 559.241 316.95 558.713Z M356.847 550.991V558.746Q356.847 559.274 356.484 559.637Q356.121 560.0 355.56 560.0Q354.99899999999997 560.0 354.63599999999997 559.6535Q354.27299999999997 559.307 354.27299999999997 558.746V556.766Q353.118 558.35 351.336 559.2574999999999Q349.554 560.165 347.409 560.165Q344.901 560.165 342.87149999999997 558.9604999999999Q340.842 557.756 339.67049999999995 555.6605Q338.49899999999997 553.565 338.49899999999997 550.991Q338.49899999999997 548.417 339.70349999999996 546.3050000000001Q340.908 544.193 343.00350000000003 542.9884999999999Q345.099 541.784 347.673 541.784Q350.247 541.784 352.3425 542.9884999999999Q354.438 544.193 355.6425 546.3050000000001Q356.847 548.417 356.847 550.991ZM354.339 550.991Q354.339 549.044 353.4645 547.4765Q352.59 545.909 351.072 545.0015000000001Q349.554 544.094 347.673 544.094Q345.792 544.094 344.2575 545.0015000000001Q342.723 545.909 341.8485 547.4765Q340.974 549.044 340.974 550.991Q340.974 552.938 341.8485 554.5055Q342.723 556.073 344.2575 556.9639999999999Q345.792 557.855 347.673 557.855Q349.554 557.855 351.072 556.9639999999999Q352.59 556.073 353.4645 554.5055Q354.339 552.938 354.339 550.991Z M361.137 557.525Q360.807 557.129 360.807 556.766Q360.807 556.205 361.335 555.776Q361.731 555.479 362.16 555.479Q362.721 555.479 363.117 555.941Q363.909 556.865 365.2125 557.36Q366.516 557.855 368.1 557.855Q370.41 557.855 371.56500000000005 557.063Q372.72 556.271 372.753 554.984Q372.753 553.796 371.59799999999996 553.004Q370.443 552.212 367.935 551.816Q364.701 551.288 363.1005 549.9845Q361.5 548.681 361.5 546.833Q361.5 544.424 363.3645 543.104Q365.229 541.784 368.034 541.784Q370.212 541.784 371.829 542.5264999999999Q373.446 543.269 374.436 544.5889999999999Q374.7 545.018 374.7 545.348Q374.7 545.909 374.172 546.239Q373.941 546.404 373.545 546.404Q372.852 546.404 372.39 545.909Q370.773 544.061 367.968 544.061Q366.153 544.061 365.064 544.8035Q363.975 545.546 363.975 546.668Q363.975 547.856 364.99800000000005 548.5654999999999Q366.021 549.275 368.628 549.704Q372.159 550.298 373.677 551.6345Q375.195 552.971 375.195 554.951Q375.195 556.469 374.2875 557.657Q373.38 558.845 371.76300000000003 559.505Q370.146 560.165 368.1 560.165Q366.054 560.165 364.173 559.472Q362.292 558.779 361.137 557.525Z M380.11199999999997 558.713V543.236Q380.11199999999997 542.675 380.47499999999997 542.3119999999999Q380.83799999999997 541.949 381.399 541.949Q381.96 541.949 382.30649999999997 542.3119999999999Q382.65299999999996 542.675 382.65299999999996 543.236V558.713Q382.65299999999996 559.274 382.30649999999997 559.637Q381.96 560.0 381.399 560.0Q380.83799999999997 560.0 380.47499999999997 559.637Q380.11199999999997 559.274 380.11199999999997 558.713ZM379.58399999999995 536.702Q379.58399999999995 535.91 380.11199999999997 535.415Q380.64 534.92 381.39899999999994 534.92Q382.12499999999994 534.92 382.65299999999996 535.415Q383.181 535.91 383.181 536.702Q383.181 537.461 382.65299999999996 537.989Q382.12499999999994 538.517 381.366 538.517Q380.60699999999997 538.517 380.09549999999996 537.989Q379.58399999999995 537.461 379.58399999999995 536.702Z M405.09299999999996 550.661Q405.09299999999996 551.189 404.7629999999999 551.5025Q404.43299999999994 551.816 403.905 551.816H390.573Q390.83699999999993 554.522 392.68499999999995 556.205Q394.53299999999996 557.888 397.30499999999995 557.888Q398.49299999999994 557.888 399.69749999999993 557.4755Q400.90199999999993 557.063 401.62799999999993 556.436Q402.05699999999996 556.106 402.51899999999995 556.106Q402.88199999999995 556.106 403.24499999999995 556.37Q403.674 556.766 403.674 557.261Q403.674 557.69 403.311 558.02Q402.222 558.944 400.539 559.5545Q398.85599999999994 560.165 397.30499999999995 560.165Q394.66499999999996 560.165 392.58599999999996 558.9935Q390.50699999999995 557.822 389.3354999999999 555.7265Q388.16399999999993 553.631 388.16399999999993 550.991Q388.16399999999993 548.318 389.26949999999994 546.2225Q390.37499999999994 544.127 392.33849999999995 542.9555Q394.30199999999996 541.784 396.80999999999995 541.784Q399.25199999999995 541.784 401.1329999999999 542.9225Q403.01399999999995 544.061 404.0535 546.0740000000001Q405.09299999999996 548.087 405.09299999999996 550.661ZM390.63899999999995 549.704H402.717Q402.453 547.163 400.86899999999997 545.6120000000001Q399.28499999999997 544.061 396.80999999999995 544.061Q394.30199999999996 544.061 392.65199999999993 545.6120000000001Q391.00199999999995 547.163 390.63899999999995 549.704Z M420.537 543.137Q420.537 543.335 420.50399999999996 543.434Q420.37199999999996 543.896 420.0915 544.0609999999999Q419.811 544.226 419.316 544.226Q419.01899999999995 544.226 418.29299999999995 544.16Q418.02899999999994 544.127 417.501 544.127Q415.02599999999995 544.127 413.45849999999996 545.447Q411.89099999999996 546.767 411.89099999999996 548.879V558.746Q411.89099999999996 559.34 411.5609999999999 559.6700000000001Q411.23099999999994 560.0 410.63699999999994 560.0Q410.04299999999995 560.0 409.71299999999997 559.6700000000001Q409.383 559.34 409.383 558.746V543.203Q409.383 542.609 409.71299999999997 542.279Q410.04299999999995 541.949 410.63699999999994 541.949Q411.23099999999994 541.949 411.5609999999999 542.279Q411.89099999999996 542.609 411.89099999999996 543.203V544.655Q412.84799999999996 543.269 414.33299999999997 542.51Q415.818 541.751 417.53399999999993 541.751Q418.91999999999996 541.751 419.72849999999994 542.114Q420.537 542.477 420.537 543.137Z M443.3069999999999 558.746Q443.3069999999999 559.274 442.91099999999994 559.637Q442.51499999999993 560.0 441.92099999999994 560.0H441.2279999999999Q439.4789999999999 560.0 438.09299999999996 559.1585Q436.70699999999994 558.317 435.9314999999999 556.8815Q435.1559999999999 555.446 435.1559999999999 553.631V544.82H433.0109999999999Q432.4829999999999 544.82 432.1694999999999 544.5065Q431.85599999999994 544.193 431.85599999999994 543.731Q431.85599999999994 543.236 432.1694999999999 542.9225Q432.4829999999999 542.609 433.0109999999999 542.609H435.1559999999999V537.494Q435.1559999999999 536.933 435.50249999999994 536.5699999999999Q435.84899999999993 536.207 436.4099999999999 536.207Q436.9709999999999 536.207 437.3339999999999 536.5699999999999Q437.6969999999999 536.933 437.6969999999999 537.494V542.609H441.42599999999993Q441.9539999999999 542.609 442.2674999999999 542.9225Q442.5809999999999 543.236 442.5809999999999 543.731Q442.5809999999999 544.193 442.2674999999999 544.5065Q441.9539999999999 544.82 441.42599999999993 544.82H437.6969999999999V553.631Q437.6969999999999 555.314 438.6869999999999 556.3865Q439.6769999999999 557.459 441.2279999999999 557.459H442.1189999999999Q442.64699999999993 557.459 442.9769999999999 557.8219999999999Q443.3069999999999 558.185 443.3069999999999 558.746Z M464.16299999999995 550.166V558.746Q464.16299999999995 559.274 463.79999999999995 559.637Q463.43699999999995 560.0 462.90899999999993 560.0Q462.34799999999996 560.0 461.98499999999996 559.637Q461.62199999999996 559.274 461.62199999999996 558.746V550.166Q461.62199999999996 547.229 459.98849999999993 545.6945000000001Q458.3549999999999 544.16 455.7149999999999 544.16Q454.09799999999996 544.16 452.79449999999997 544.787Q451.49099999999993 545.414 450.73199999999997 546.5195Q449.97299999999996 547.625 449.97299999999996 548.978V558.746Q449.97299999999996 559.307 449.62649999999996 559.6535Q449.2799999999999 560.0 448.71899999999994 560.0Q448.15799999999996 560.0 447.79499999999996 559.6535Q447.43199999999996 559.307 447.43199999999996 558.746V535.514Q447.43199999999996 534.953 447.79499999999996 534.5899999999999Q448.15799999999996 534.227 448.71899999999994 534.227Q449.2799999999999 534.227 449.62649999999996 534.5899999999999Q449.97299999999996 534.953 449.97299999999996 535.514V544.358Q451.06199999999995 543.137 452.61299999999994 542.444Q454.16399999999993 541.751 455.9789999999999 541.751Q458.32199999999995 541.751 460.1864999999999 542.741Q462.05099999999993 543.731 463.10699999999997 545.6285Q464.16299999999995 547.526 464.16299999999995 550.166Z M487.16399999999993 550.991V558.746Q487.16399999999993 559.274 486.80099999999993 559.637Q486.43799999999993 560.0 485.87699999999995 560.0Q485.3159999999999 560.0 484.9529999999999 559.6535Q484.5899999999999 559.307 484.5899999999999 558.746V556.766Q483.43499999999995 558.35 481.6529999999999 559.2574999999999Q479.8709999999999 560.165 477.72599999999994 560.165Q475.21799999999996 560.165 473.1885 558.9604999999999Q471.15899999999993 557.756 469.98749999999995 555.6605Q468.8159999999999 553.565 468.8159999999999 550.991Q468.8159999999999 548.417 470.02049999999997 546.3050000000001Q471.22499999999997 544.193 473.3204999999999 542.9884999999999Q475.41599999999994 541.784 477.98999999999995 541.784Q480.56399999999996 541.784 482.6595 542.9884999999999Q484.75499999999994 544.193 485.95949999999993 546.3050000000001Q487.16399999999993 548.417 487.16399999999993 550.991ZM484.65599999999995 550.991Q484.65599999999995 549.044 483.78149999999994 547.4765Q482.9069999999999 545.909 481.3889999999999 545.0015000000001Q479.8709999999999 544.094 477.98999999999995 544.094Q476.1089999999999 544.094 474.57449999999994 545.0015000000001Q473.03999999999996 545.909 472.16549999999995 547.4765Q471.29099999999994 549.044 471.29099999999994 550.991Q471.29099999999994 552.938 472.16549999999995 554.5055Q473.03999999999996 556.073 474.57449999999994 556.9639999999999Q476.1089999999999 557.855 477.98999999999995 557.855Q479.8709999999999 557.855 481.3889999999999 556.9639999999999Q482.9069999999999 556.073 483.78149999999994 554.5055Q484.65599999999995 552.938 484.65599999999995 550.991Z M508.84499999999997 550.166V558.746Q508.84499999999997 559.274 508.48199999999997 559.637Q508.11899999999997 560.0 507.59099999999995 560.0Q507.03 560.0 506.667 559.637Q506.304 559.274 506.304 558.746V550.166Q506.304 547.229 504.67049999999995 545.6945000000001Q503.0369999999999 544.16 500.39699999999993 544.16Q498.78 544.16 497.4765 544.787Q496.17299999999994 545.414 495.414 546.5195Q494.655 547.625 494.655 548.978V558.746Q494.655 559.307 494.3085 559.6535Q493.96199999999993 560.0 493.40099999999995 560.0Q492.84 560.0 492.477 559.6535Q492.114 559.307 492.114 558.746V543.236Q492.114 542.675 492.477 542.3119999999999Q492.84 541.949 493.40099999999995 541.949Q493.96199999999993 541.949 494.3085 542.3119999999999Q494.655 542.675 494.655 543.236V544.358Q495.74399999999997 543.137 497.29499999999996 542.444Q498.84599999999995 541.751 500.66099999999994 541.751Q503.00399999999996 541.751 504.8684999999999 542.741Q506.73299999999995 543.731 507.789 545.6285Q508.84499999999997 547.526 508.84499999999997 550.166Z M541.515 543.203V550.958Q541.515 553.532 540.3105 555.644Q539.106 557.756 537.0105 558.9604999999999Q534.915 560.165 532.341 560.165Q529.767 560.165 527.6715 558.9604999999999Q525.576 557.756 524.3715 555.644Q523.167 553.532 523.167 550.958Q523.167 548.384 524.3385000000001 546.2885Q525.51 544.193 527.5395 542.9884999999999Q529.569 541.784 532.077 541.784Q534.222 541.784 536.0039999999999 542.6915Q537.786 543.599 538.941 545.183V535.514Q538.941 534.953 539.3040000000001 534.5899999999999Q539.667 534.227 540.228 534.227Q540.789 534.227 541.1355 534.5899999999999Q541.482 534.953 541.482 535.514V542.906Q541.515 543.005 541.515 543.203ZM539.007 550.958Q539.007 550.397 538.974 550.133Q538.941 550.067 538.941 549.968Q538.611 547.394 536.7795 545.744Q534.948 544.094 532.341 544.094Q530.46 544.094 528.9255 544.985Q527.391 545.876 526.5165 547.4435Q525.642 549.011 525.642 550.958Q525.642 552.905 526.5165 554.4725Q527.391 556.04 528.9255 556.9475Q530.46 557.855 532.341 557.855Q534.222 557.855 535.74 556.9475Q537.258 556.04 538.1324999999999 554.4725Q539.007 552.905 539.007 550.958Z M546.498 550.991Q546.498 548.384 547.686 546.2719999999999Q548.874 544.16 550.9695 542.972Q553.065 541.784 555.672 541.784Q558.279 541.784 560.358 542.972Q562.437 544.16 563.6415 546.2719999999999Q564.846 548.384 564.846 550.991Q564.846 553.598 563.658 555.6935Q562.47 557.789 560.3745 558.977Q558.279 560.165 555.672 560.165Q553.065 560.165 550.9695 558.977Q548.874 557.789 547.686 555.6935Q546.498 553.598 546.498 550.991ZM562.338 550.991Q562.338 549.011 561.48 547.4435Q560.6220000000001 545.876 559.104 544.985Q557.586 544.094 555.672 544.094Q553.791 544.094 552.2565 544.985Q550.722 545.876 549.8475000000001 547.4435Q548.9730000000001 549.011 548.9730000000001 550.991Q548.9730000000001 552.938 549.8475000000001 554.5055Q550.722 556.073 552.2565 556.9639999999999Q553.791 557.855 555.672 557.855Q557.586 557.855 559.104 556.9639999999999Q560.6220000000001 556.073 561.48 554.5055Q562.338 552.938 562.338 550.991Z M570.3240000000001 558.713V543.236Q570.3240000000001 542.675 570.6870000000001 542.3119999999999Q571.0500000000001 541.949 571.611 541.949Q572.172 541.949 572.5185 542.3119999999999Q572.865 542.675 572.865 543.236V558.713Q572.865 559.274 572.5185 559.637Q572.172 560.0 571.611 560.0Q571.0500000000001 560.0 570.6870000000001 559.637Q570.3240000000001 559.274 570.3240000000001 558.713ZM569.796 536.702Q569.796 535.91 570.3240000000001 535.415Q570.852 534.92 571.611 534.92Q572.337 534.92 572.865 535.415Q573.393 535.91 573.393 536.702Q573.393 537.461 572.865 537.989Q572.337 538.517 571.578 538.517Q570.819 538.517 570.3075 537.989Q569.796 537.461 569.796 536.702Z M596.0640000000001 550.166V558.746Q596.0640000000001 559.274 595.701 559.637Q595.3380000000001 560.0 594.8100000000001 560.0Q594.249 560.0 593.886 559.637Q593.523 559.274 593.523 558.746V550.166Q593.523 547.229 591.8895 545.6945000000001Q590.2560000000001 544.16 587.6160000000001 544.16Q585.999 544.16 584.6955 544.787Q583.392 545.414 582.633 546.5195Q581.874 547.625 581.874 548.978V558.746Q581.874 559.307 581.5275 559.6535Q581.181 560.0 580.62 560.0Q580.0590000000001 560.0 579.6960000000001 559.6535Q579.3330000000001 559.307 579.3330000000001 558.746V543.236Q579.3330000000001 542.675 579.6960000000001 542.3119999999999Q580.0590000000001 541.949 580.62 541.949Q581.181 541.949 581.5275 542.3119999999999Q581.874 542.675 581.874 543.236V544.358Q582.9630000000001 543.137 584.5140000000001 542.444Q586.065 541.751 587.8800000000001 541.751Q590.2230000000001 541.751 592.0875000000001 542.741Q593.9520000000001 543.731 595.008 545.6285Q596.0640000000001 547.526 596.0640000000001 550.166Z M619.065 550.991V557.723Q619.065 560.363 617.8935000000001 562.508Q616.7220000000001 564.653 614.643 565.8905Q612.5640000000001 567.128 609.9570000000001 567.128Q607.416 567.128 605.436 566.171Q603.456 565.214 602.1030000000001 563.498Q601.806 563.168 601.806 562.739Q601.806 562.244 602.268 561.881Q602.5980000000001 561.65 602.994 561.65Q603.291 561.65 603.5880000000001 561.7985Q603.8850000000001 561.947 604.0500000000001 562.178Q605.0400000000001 563.432 606.558 564.125Q608.076 564.818 609.99 564.818Q611.8380000000001 564.818 613.3395 563.9105Q614.8410000000001 563.003 615.6990000000001 561.3695Q616.557 559.736 616.557 557.624V556.139Q615.567 558.02 613.752 559.0925Q611.937 560.165 609.6270000000001 560.165Q607.0530000000001 560.165 605.0235 558.9935Q602.994 557.822 601.8555000000001 555.7265Q600.7170000000001 553.631 600.7170000000001 550.991Q600.7170000000001 548.318 601.9050000000001 546.2225Q603.0930000000001 544.127 605.1885000000001 542.9555Q607.2840000000001 541.784 609.8910000000001 541.784Q612.5310000000001 541.784 614.6100000000001 542.9555Q616.6890000000001 544.127 617.8770000000001 546.2225Q619.065 548.318 619.065 550.991ZM616.557 550.991Q616.557 549.011 615.6990000000001 547.4435Q614.8410000000001 545.876 613.3230000000001 544.985Q611.8050000000001 544.094 609.8910000000001 544.094Q607.9440000000001 544.094 606.426 544.985Q604.908 545.876 604.0500000000001 547.4435Q603.1920000000001 549.011 603.1920000000001 550.991Q603.1920000000001 552.971 604.0500000000001 554.5385Q604.908 556.106 606.426 556.9805Q607.9440000000001 557.855 609.8910000000001 557.855Q611.8050000000001 557.855 613.3230000000001 556.9805Q614.8410000000001 556.106 615.6990000000001 554.5385Q616.557 552.971 616.557 550.991Z M650.4150000000001 550.166V558.746Q650.4150000000001 559.274 650.0520000000001 559.637Q649.6890000000001 560.0 649.1610000000001 560.0Q648.6 560.0 648.2370000000001 559.637Q647.874 559.274 647.874 558.746V550.166Q647.874 547.229 646.2405000000001 545.6945000000001Q644.6070000000001 544.16 641.9670000000001 544.16Q640.35 544.16 639.0465 544.787Q637.743 545.414 636.984 546.5195Q636.225 547.625 636.225 548.978V558.746Q636.225 559.307 635.8785 559.6535Q635.532 560.0 634.971 560.0Q634.4100000000001 560.0 634.047 559.6535Q633.6840000000001 559.307 633.6840000000001 558.746V543.236Q633.6840000000001 542.675 634.047 542.3119999999999Q634.4100000000001 541.949 634.971 541.949Q635.532 541.949 635.8785 542.3119999999999Q636.225 542.675 636.225 543.236V544.358Q637.3140000000001 543.137 638.865 542.444Q640.416 541.751 642.2310000000001 541.751Q644.5740000000001 541.751 646.4385000000001 542.741Q648.3030000000001 543.731 649.3590000000002 545.6285Q650.4150000000001 547.526 650.4150000000001 550.166Z M655.0680000000001 550.991Q655.0680000000001 548.384 656.2560000000001 546.2719999999999Q657.4440000000001 544.16 659.5395000000001 542.972Q661.6350000000001 541.784 664.2420000000001 541.784Q666.849 541.784 668.9280000000001 542.972Q671.0070000000001 544.16 672.2115000000001 546.2719999999999Q673.416 548.384 673.416 550.991Q673.416 553.598 672.2280000000001 555.6935Q671.0400000000001 557.789 668.9445000000001 558.977Q666.849 560.165 664.2420000000001 560.165Q661.6350000000001 560.165 659.5395000000001 558.977Q657.4440000000001 557.789 656.2560000000001 555.6935Q655.0680000000001 553.598 655.0680000000001 550.991ZM670.908 550.991Q670.908 549.011 670.05 547.4435Q669.192 545.876 667.674 544.985Q666.1560000000001 544.094 664.2420000000001 544.094Q662.3610000000001 544.094 660.8265000000001 544.985Q659.292 545.876 658.4175 547.4435Q657.5430000000001 549.011 657.5430000000001 550.991Q657.5430000000001 552.938 658.4175 554.5055Q659.292 556.073 660.8265000000001 556.9639999999999Q662.3610000000001 557.855 664.2420000000001 557.855Q666.1560000000001 557.855 667.674 556.9639999999999Q669.192 556.073 670.05 554.5055Q670.908 552.938 670.908 550.991Z M687.5070000000001 558.746Q687.5070000000001 559.274 687.1110000000001 559.637Q686.715 560.0 686.1210000000001 560.0H685.4280000000001Q683.6790000000001 560.0 682.2930000000001 559.1585Q680.907 558.317 680.1315000000001 556.8815Q679.3560000000001 555.446 679.3560000000001 553.631V544.82H677.2110000000001Q676.6830000000001 544.82 676.3695 544.5065Q676.056 544.193 676.056 543.731Q676.056 543.236 676.3695 542.9225Q676.6830000000001 542.609 677.2110000000001 542.609H679.3560000000001V537.494Q679.3560000000001 536.933 679.7025000000001 536.5699999999999Q680.0490000000001 536.207 680.6100000000001 536.207Q681.171 536.207 681.5340000000001 536.5699999999999Q681.897 536.933 681.897 537.494V542.609H685.6260000000001Q686.1540000000001 542.609 686.4675000000001 542.9225Q686.7810000000001 543.236 686.7810000000001 543.731Q686.7810000000001 544.193 686.4675000000001 544.5065Q686.1540000000001 544.82 685.6260000000001 544.82H681.897V553.631Q681.897 555.314 682.8870000000001 556.3865Q683.8770000000001 557.459 685.4280000000001 557.459H686.3190000000001Q686.8470000000001 557.459 687.1770000000001 557.8219999999999Q687.5070000000001 558.185 687.5070000000001 558.746Z M708.363 550.166V558.746Q708.363 559.274 708.0 559.637Q707.6370000000001 560.0 707.109 560.0Q706.548 560.0 706.185 559.637Q705.822 559.274 705.822 558.746V550.166Q705.822 547.229 704.1885 545.6945000000001Q702.5550000000001 544.16 699.9150000000001 544.16Q698.298 544.16 696.9945 544.787Q695.691 545.414 694.932 546.5195Q694.173 547.625 694.173 548.978V558.746Q694.173 559.307 693.8265 559.6535Q693.48 560.0 692.919 560.0Q692.3580000000001 560.0 691.9950000000001 559.6535Q691.6320000000001 559.307 691.6320000000001 558.746V535.514Q691.6320000000001 534.953 691.9950000000001 534.5899999999999Q692.3580000000001 534.227 692.919 534.227Q693.48 534.227 693.8265 534.5899999999999Q694.173 534.953 694.173 535.514V544.358Q695.2620000000001 543.137 696.8130000000001 542.444Q698.364 541.751 700.1790000000001 541.751Q702.522 541.751 704.3865000000001 542.741Q706.2510000000001 543.731 707.307 545.6285Q708.363 547.526 708.363 550.166Z M714.5010000000001 558.713V543.236Q714.5010000000001 542.675 714.864 542.3119999999999Q715.2270000000001 541.949 715.788 541.949Q716.349 541.949 716.6955 542.3119999999999Q717.042 542.675 717.042 543.236V558.713Q717.042 559.274 716.6955 559.637Q716.349 560.0 715.788 560.0Q715.2270000000001 560.0 714.864 559.637Q714.5010000000001 559.274 714.5010000000001 558.713ZM713.9730000000001 536.702Q713.9730000000001 535.91 714.501 535.415Q715.029 534.92 715.788 534.92Q716.514 534.92 717.042 535.415Q717.57 535.91 717.57 536.702Q717.57 537.461 717.042 537.989Q716.514 538.517 715.755 538.517Q714.996 538.517 714.4845 537.989Q713.9730000000001 537.461 713.9730000000001 536.702Z M740.2410000000001 550.166V558.746Q740.2410000000001 559.274 739.8780000000002 559.637Q739.5150000000001 560.0 738.9870000000001 560.0Q738.426 560.0 738.0630000000001 559.637Q737.7 559.274 737.7 558.746V550.166Q737.7 547.229 736.0665000000001 545.6945000000001Q734.4330000000001 544.16 731.7930000000001 544.16Q730.176 544.16 728.8725000000001 544.787Q727.5690000000001 545.414 726.8100000000001 546.5195Q726.051 547.625 726.051 548.978V558.746Q726.051 559.307 725.7045 559.6535Q725.3580000000001 560.0 724.797 560.0Q724.2360000000001 560.0 723.873 559.6535Q723.5100000000001 559.307 723.5100000000001 558.746V543.236Q723.5100000000001 542.675 723.873 542.3119999999999Q724.2360000000001 541.949 724.797 541.949Q725.3580000000001 541.949 725.7045 542.3119999999999Q726.051 542.675 726.051 543.236V544.358Q727.1400000000001 543.137 728.691 542.444Q730.2420000000001 541.751 732.0570000000001 541.751Q734.4000000000001 541.751 736.2645000000001 542.741Q738.1290000000001 543.731 739.1850000000002 545.6285Q740.2410000000001 547.526 740.2410000000001 550.166Z M763.2420000000001 550.991V557.723Q763.2420000000001 560.363 762.0705 562.508Q760.8990000000001 564.653 758.8200000000002 565.8905Q756.7410000000001 567.128 754.1340000000001 567.128Q751.5930000000001 567.128 749.613 566.171Q747.633 565.214 746.2800000000001 563.498Q745.9830000000001 563.168 745.9830000000001 562.739Q745.9830000000001 562.244 746.445 561.881Q746.7750000000001 561.65 747.171 561.65Q747.4680000000001 561.65 747.7650000000001 561.7985Q748.0620000000001 561.947 748.2270000000001 562.178Q749.2170000000001 563.432 750.7350000000001 564.125Q752.253 564.818 754.1670000000001 564.818Q756.0150000000001 564.818 757.5165000000001 563.9105Q759.018 563.003 759.876 561.3695Q760.734 559.736 760.734 557.624V556.139Q759.7440000000001 558.02 757.9290000000001 559.0925Q756.114 560.165 753.8040000000001 560.165Q751.2300000000001 560.165 749.2005000000001 558.9935Q747.171 557.822 746.0325 555.7265Q744.8940000000001 553.631 744.8940000000001 550.991Q744.8940000000001 548.318 746.0820000000001 546.2225Q747.2700000000001 544.127 749.3655000000001 542.9555Q751.4610000000001 541.784 754.0680000000001 541.784Q756.7080000000001 541.784 758.787 542.9555Q760.8660000000001 544.127 762.0540000000001 546.2225Q763.2420000000001 548.318 763.2420000000001 550.991ZM760.734 550.991Q760.734 549.011 759.876 547.4435Q759.018 545.876 757.5 544.985Q755.9820000000001 544.094 754.0680000000001 544.094Q752.1210000000001 544.094 750.6030000000001 544.985Q749.085 545.876 748.2270000000001 547.4435Q747.3690000000001 549.011 747.3690000000001 550.991Q747.3690000000001 552.971 748.2270000000001 554.5385Q749.085 556.106 750.6030000000001 556.9805Q752.1210000000001 557.855 754.0680000000001 557.855Q755.9820000000001 557.855 757.5 556.9805Q759.018 556.106 759.876 554.5385Q760.734 552.971 760.734 550.991Z M766.8720000000001 558.614Q766.8720000000001 557.789 767.4495000000001 557.2280000000001Q768.027 556.667 768.7860000000001 556.667Q769.5780000000001 556.667 770.1390000000001 557.2445Q770.7 557.822 770.7 558.614Q770.7 559.406 770.1390000000001 559.967Q769.5780000000001 560.528 768.7860000000001 560.528Q767.9940000000001 560.528 767.4330000000001 559.967Q766.8720000000001 559.406 766.8720000000001 558.614Z" fill="#ffd820"/>
  <g id="print-guides" opacity="0">
    <rect x="18" y="18" width="1050" height="600" fill="none" stroke="#0ef" stroke-width="1" stroke-dasharray="6 6"/>
    <rect x="36" y="36" width="1014" height="564" fill="none" stroke="#f0d" stroke-width="1" stroke-dasharray="6 6"/>
  </g>
</svg>