<svg xmlns="http://www.w3.org/2000/svg" viewBox="0 0 1024 1024" width="1024" height="1024">
  <defs>
    <radialGradient id="orb" cx="45%" cy="45%" r="80%">
      <stop offset="0" stop-color="#fff4c0"/>
      <stop offset="0.18" stop-color="#f8f288"/>
      <stop offset="0.38" stop-color="#f5d820"/>
      <stop offset="0.49" stop-color="#ffb805"/>
      <stop offset="0.65" stop-color="#ed7326"/>
      <stop offset="0.74" stop-color="#e71f75"/>
      <stop offset="0.84" stop-color="#870a3e"/>
    </radialGradient>
  </defs>
  <path d="M807.925825888005 198.84976650075555 813.9361903517251 200.3523576166856Q816.9413725835852 200.3523576166856 816.9413725835852 201.85494873261564Q856.0087415977657 186.8290375733153 881.5527905685763 224.39381547156597Q898.0812928438065 249.9378644423765 907.0968395393868 302.5285534999274Q910.1020217712469 374.65292706456876 892.0709283800866 502.37317191862104Q857.5113327136958 760.8188438585858 854.5061504818359 810.4043506842766Q857.5113327136958 862.9950397418276 789.8947324968447 882.5287242489179Q731.2936789755736 900.5598176400782 672.6926254543025 881.0261331329879Q611.0863897011714 859.9898575099675 621.6045275126817 816.4147151479967Q609.5837985852413 838.9535818869471 597.5630696578012 848.7204241404922Q585.5423407303609 858.4872663940374 550.2314495060052 875.7670642272328Q514.9205582816496 893.0468620604281 450.3091402966585 904.3162954299033Q385.69772231166735 915.5857287993786 321.08630432667616 910.3266598936234Q256.47488634168496 905.0675909878684 203.13290172616902 878.7722464590929Q149.79091711065308 852.4769019303174 131.75982371949274 796.8810306409064Q97.20022805310212 688.6944702939444 140.7753704150729 521.9068564257113Q170.82719273367346 412.2177049628194 248.96193076203485 328.07260247073793Q339.1173977178365 231.9067710512162 453.3143225285186 168.797944182155Q538.9620161365301 122.21761958832417 618.5993452808216 113.20207289274401Q645.6459853675619 110.19689066088392 665.9309654326173 114.704664008674Q686.2159454976727 119.21243735646408 709.5061077945882 123.72021070425416Q732.7962700915036 128.22798405204423 753.832545714524 137.2435307476244Q807.925825888005 159.78239748657484 807.925825888005 198.84976650075555ZM529.94646944095 597.0364122222127Q540.4646072524602 576.0001365991924 547.2262672741452 544.4457231646618Q553.9879272958303 512.8913097301313 566.0086562232706 475.3265318318806Q444.29877583293836 524.9120386575714 379.6873578479472 597.0364122222127Q309.06557539923597 676.6737413665041 388.7029045435274 706.7255636851047Q457.82209587630865 724.756657076265 489.3765093108392 684.1866969461544Q502.89982935420943 666.1556035549941 513.4179671657197 639.1089634682535Q523.9361049772299 612.062323381513 538.9620161365301 583.5130921788425Q534.45424278874 591.0260477584926 529.94646944095 597.0364122222127Z" fill="url(#orb)" stroke="#000000" stroke-width="40" stroke-linejoin="round" paint-order="stroke"/>
</svg>
